<?xml version="1.0" encoding="UTF-8"?>
<svg width="300" height="60" viewBox="0 0 300 60" fill="none" xmlns="http://www.w3.org/2000/svg">
  <path d="M20 10H280C285.523 10 290 14.4772 290 20V40C290 45.5228 285.523 50 280 50H20C14.4772 50 10 45.5228 10 40V20C10 14.4772 14.4772 10 20 10Z" fill="#0E563D" fill-opacity="0.3"/>
  <path d="M0 20C0 8.95431 8.95431 0 20 0H280C291.046 0 300 8.95431 300 20V40C300 51.0457 291.046 60 280 60H20C8.95431 60 0 51.0457 0 40V20Z" stroke="#0E563D" stroke-opacity="0.5" stroke-width="2"/>
  <path d="M20 5H280C288.284 5 295 11.7157 295 20V40C295 48.2843 288.284 55 280 55H20C11.7157 55 5 48.2843 5 40V20C5 11.7157 11.7157 5 20 5Z" stroke="#0E563D" stroke-opacity="0.3"/>
</svg> 